<?xml version="1.0" encoding="UTF-8"?>
<svg width="250px" height="33px" viewBox="0 0 250 33" version="1.1" xmlns="http://www.w3.org/2000/svg" xmlns:xlink="http://www.w3.org/1999/xlink">
    <title>Logo Secondary</title>
    <g stroke="none" stroke-width="1" fill="currentColor" fill-rule="evenodd">
        <path d="M16.3926065,19.5752929 C11.4814194,19.5752929 14.6338706,25.5803976 9.95611366,25.8447229 C6.27386764,26.0438251 4.74684551,22.0308864 6.5719488,20.5364758 C10.9516246,16.920025 21.1367308,16.8879856 20.7379543,9.55496086 C20.5388521,6.23716337 18.8138721,1.95818293 10.4212575,1.95818293 C-1.25825927,1.95818293 -1.78862628,9.85361414 2.35933576,10.3851254 C7.63325492,11.0482272 4.74684551,2.98573325 10.3875017,2.98573325 C13.7052992,2.98573325 14.9662797,6.76867463 13.7052992,8.56002211 C11.1507268,12.1438613 0.666967248,11.5797384 0.566844026,19.3092512 C0.499904503,23.8542733 4.44876436,26.8739896 10.2221554,26.8739896 C20.572608,26.8739896 21.1693424,19.5752929 16.3926065,19.5752929" transform="translate(10.3747, 14.4161) scale(-1, 1) rotate(-180) translate(-10.3747, -14.4161)"/>
        <path d="M31.605159,19.7742203 C33.7626713,19.7742203 34.2260988,19.8405877 34.2260988,21.5649956 C34.2260988,23.3900989 33.4302622,25.8456925 31.9032401,25.8456925 C30.2451995,25.8456925 29.1169539,22.9913224 29.1838934,19.7742203 L31.605159,19.7742203 Z M40.2638151,18.712342 C40.1974478,18.3135655 39.965734,18.1161797 39.5686739,18.1161797 L29.3166282,18.1161797 C29.3829955,17.7174033 29.449363,17.2860152 29.5483419,16.8872387 C30.708627,12.2094818 34.1271199,10.1206253 38.9702231,11.4805848 C39.3352438,11.5789916 39.6007133,11.5789916 39.8003877,11.3798894 C39.965734,11.1819315 39.965734,10.9164619 39.7340203,10.5840528 C38.9702231,9.52217453 36.7143039,7.10090898 32.4353235,7.10090898 C26.9937694,7.10090898 22.9465027,10.8821339 22.5477263,16.2910765 C22.1169103,21.9963837 26.0651981,26.8068754 31.9032401,26.8732428 C39.0709185,26.9401823 40.62998,21.1341797 40.2638151,18.712342" transform="translate(31.4144, 16.9874) scale(-1, 1) rotate(-180) translate(-31.4144, -16.9874)"/>
    </g>
</svg>