<?xml version="1.0" encoding="UTF-8"?>
<svg width="250px" height="109px" viewBox="0 0 250 109" version="1.1" xmlns="http://www.w3.org/2000/svg" xmlns:xlink="http://www.w3.org/1999/xlink">
    <title>Logo Tertiary</title>
    <g stroke="none" stroke-width="1" fill="currentColor" fill-rule="evenodd">
        <path d="M30.7378413,33.0344555 C21.5302275,33.0344555 27.4406453,44.2939923 18.66934,44.7916386 C11.7636296,45.165452 8.9015848,37.6382624 12.323771,34.8387126 C20.5360922,28.0568352 39.6341368,27.9943401 38.8876674,14.2465718 C38.5150113,8.02483585 35.2803104,0 19.5407997,0 C-2.35910932,0 -3.3532446,14.8067132 4.4227681,15.8008485 C14.3143562,17.0461216 8.9015848,1.92809007 19.4783045,1.92809007 C25.6988832,1.92809007 28.0632818,9.02012841 25.6988832,12.3798196 C20.9087483,19.0992019 1.2505623,18.0402569 1.06307694,32.5368092 C0.939244029,41.0592913 8.34260067,46.7208859 19.1669862,46.7208859 C38.5763491,46.7208859 39.6966319,33.0344555 30.7378413,33.0344555" transform="translate(19.4545, 23.3604) scale(-1, 1) rotate(-180) translate(-19.4545, -23.3604)"/>
        <path d="M58.9748715,33.4082631 C63.018537,33.4082631 63.8899967,33.532096 63.8899967,36.7679543 C63.8899967,40.1889832 62.3959005,44.7927901 59.5350129,44.7927901 C56.4241449,44.7927901 54.3085695,39.4436711 54.4324024,33.4082631 L58.9748715,33.4082631 Z M75.2120286,31.417678 C75.0881956,30.6712085 74.6518871,30.2973951 73.9054177,30.2973951 L54.6823828,30.2973951 C54.8062158,29.5509256 54.931206,28.7431184 55.1175341,27.9954917 C57.2956045,19.2241863 63.7025113,15.3043538 72.7862922,17.8562377 C73.4702665,18.0414084 73.9679128,18.0414084 74.3405689,17.6687524 C74.6518871,17.294939 74.6518871,16.79845 74.2167359,16.1758135 C72.7862922,14.1852283 68.5551413,9.64275916 60.5303055,9.64275916 C50.3273991,9.64275916 42.7377145,16.7359549 41.991245,26.8763661 C41.1822804,37.5769188 48.5856371,46.5970472 59.5350129,46.7208802 C72.9714629,46.8458704 75.8960028,35.9589897 75.2120286,31.417678" transform="translate(58.6175, 28.1824) scale(-1, 1) rotate(-180) translate(-58.6175, -28.1824)"/>
    </g>
</svg>