<?xml version="1.0" encoding="UTF-8"?>
<svg width="250px" height="28px" viewBox="0 0 250 28" version="1.1" xmlns="http://www.w3.org/2000/svg" xmlns:xlink="http://www.w3.org/1999/xlink">
    <title>Logo Primary</title>
    <g stroke="none" stroke-width="1" fill="currentColor" fill-rule="evenodd">
        <path d="M16.2602169,15.1802171 C15.8898991,16.4144222 15.4582369,17.0318062 14.5324423,17.5248129 C13.5762569,18.0183824 12.4343497,18.234495 10.9226876,18.234495 C7.86840971,18.234495 6.04777415,17.3092632 6.04777415,15.7666474 C6.04777415,14.5937867 6.84975427,14.0692636 9.04070762,13.8537138 L14.0388728,13.3286279 C16.692442,13.0821246 18.1118061,12.7427604 19.5002165,12.0330783 C21.3821965,11.1078465 22.5544944,9.19435013 22.5544944,7.03491316 C22.5544944,4.62784728 21.1351304,2.46841034 18.8209253,1.35745685 C16.8466473,0.401271448 14.5324423,0 11.2001446,0 C7.00395956,0 4.04197972,0.802542898 2.16056254,2.43745672 C0.710244833,3.67166189 0.185721708,5.02911875 0,7.74459521 L5.39943658,7.74459521 C5.55364186,6.38657559 5.92395969,5.67689354 6.75689342,5.02911875 C7.89880054,4.1652314 9.31816459,3.79547636 11.4466479,3.79547636 C14.8098992,3.79547636 16.7543492,4.78261539 16.7543492,6.47943645 C16.7543492,7.83689329 15.7356938,8.51618451 13.3291907,8.76212505 L7.52848271,9.34855541 C3.02388708,9.81173414 0.586430364,11.8479194 0.586430364,15.1183098 C0.586430364,19.4067929 4.53554924,22.0294086 10.9536412,22.0294086 C14.1930781,22.0294086 17.1241043,21.2893357 18.9751306,20.0241769 C20.5796536,18.9132234 21.2898985,17.6176738 21.6906071,15.1802171 L16.2602169,15.1802171 Z" transform="translate(11.2772, 11.0147) scale(-1, 1) rotate(-180) translate(-11.2772, -11.0147)"/>
        <path d="M37.9835792,15.7350439 C37.4894469,17.8331364 36.13199,18.8821827 33.880255,18.8821827 C31.6273944,18.8821827 30.2389839,17.8331364 29.776368,15.7350439 L37.9835792,15.7350439 Z M29.6221628,12.7111568 C29.6531164,10.3356073 31.3493746,8.85489883 33.9725531,8.85489883 C35.854533,8.85489883 37.0273937,9.50267362 37.6132613,10.8910841 L43.0126979,10.8910841 C42.5191285,9.50267362 41.8707908,8.60783264 40.6365856,7.58974002 C38.8778573,6.13998511 36.8112812,5.46069389 34.1267584,5.46069389 C30.9182752,5.46069389 28.3873948,6.32458122 26.8143882,7.92910424 C25.4259777,9.34790551 24.6853421,11.3227464 24.6853421,13.5750441 C24.6853421,18.6660701 28.2647059,21.9060698 33.9415994,21.9060698 C37.7674666,21.9060698 40.6365856,20.4867057 42.0249961,17.86409 C42.8275388,16.3833815 43.1359495,14.9330638 43.1972939,12.7111568 L29.6221628,12.7111568 Z" transform="translate(33.9413, 13.6834) scale(-1, 1) rotate(-180) translate(-33.9413, -13.6834)"/>
        <path d="M50.5431536,6.07779952 L43.1998298,21.2889702 L48.5992661,21.2889702 L51.4070407,15.1179444 C52.1476765,13.5134214 52.3947425,12.8346929 52.9496566,11.1378719 C53.4128352,12.6810504 53.7521998,13.5134214 54.3690205,14.9018318 L57.3310007,21.2889702 L62.5148875,21.2889702 L55.0173581,6.07779952 L50.5431536,6.07779952 Z" transform="translate(52.8574, 13.6834) scale(-1, 1) rotate(-180) translate(-52.8574, -13.6834)"/>
    </g>
</svg>